<?xml version="1.0" encoding="UTF-8" standalone="no" ?>
<!DOCTYPE svg PUBLIC "-//W3C//DTD SVG 1.1//EN" "http://www.w3.org/Graphics/SVG/1.1/DTD/svg11.dtd">
<svg xmlns="http://www.w3.org/2000/svg" xmlns:xlink="http://www.w3.org/1999/xlink" version="1.1" width="852" height="650" style="background-color: #FFFFFF" viewBox="0 0 852 650" xml:space="preserve">
<desc>Created with Fabric.js 1.6.2</desc>
<defs></defs>
<g style="stroke: none; stroke-width: 1; stroke-dasharray: none; stroke-linecap: butt; stroke-linejoin: miter; stroke-miterlimit: 10; fill: none; fill-rule: nonzero; opacity: 1" transform="translate(0 0)" >
	<path d="M 0.5 0.5 L 851.5 0.5 L 851.5 559.5 L 0.5 559.5 Z" style="stroke:#000000;stroke-opacity:1; stroke-opacity: 0; stroke-width: 1; stroke-dasharray: none; stroke-linecap: butt; stroke-linejoin: miter; stroke-miterlimit: 10;fill:#FFFFFF;fill-opacity:1; fill-opacity: 0; fill-rule: nonzero; opacity: 1" transform="" stroke-linecap="round" />
	<path d="M 397.4211616751135 312.25 L 284.8378591831365 377.25000000000006 A 163 163 0 0 1 425.99999999999994 132.75 L 426 262.75 A 33 33 0 0 0 397.4211616751135 312.25 Z" style="stroke:#FFFFFF;stroke-opacity:1; stroke-width: 2; stroke-dasharray: none; stroke-linecap: butt; stroke-linejoin: miter; stroke-miterlimit: 10;fill:#84B761;fill-opacity:1; fill-rule: nonzero; opacity: 1" transform="" stroke-linecap="round" />
	<path d="M 426 262.75 L 426 132.75 A 163 163 0 0 1 567.1621408168635 377.24999999999994 L 454.5788383248865 312.25 A 33 33 0 0 0 426 262.75 Z" style="stroke:#FFFFFF;stroke-opacity:1; stroke-width: 2; stroke-dasharray: none; stroke-linecap: butt; stroke-linejoin: miter; stroke-miterlimit: 10;fill:#67B7DC;fill-opacity:1; fill-rule: nonzero; opacity: 1" transform="" stroke-linecap="round" />
	<path d="M 454.5788383248865 312.25 L 567.1621408168635 377.24999999999994 A 163 163 0 0 1 284.8378591831365 377.25000000000006 L 397.4211616751135 312.25 A 33 33 0 0 0 454.5788383248865 312.25 Z" style="stroke:#FFFFFF;stroke-opacity:1; stroke-width: 2; stroke-dasharray: none; stroke-linecap: butt; stroke-linejoin: miter; stroke-miterlimit: 10;fill:#FDD400;fill-opacity:1; fill-rule: nonzero; opacity: 1" transform="" stroke-linecap="round" />
		<g transform=" matrix(1 0 0 1 426 20) ">
		<text font-family="Open Sans" font-size="14.5" font-weight="bold" style="stroke: none; stroke-width: 1; stroke-dasharray: none; stroke-linecap: butt; stroke-linejoin: miter; stroke-miterlimit: 10;fill:#888888;fill-opacity:1; fill-rule: nonzero; opacity: 1" >
			<tspan x="-72.19" y="6.49" fill="rgba(136,136,136,1)">Open Tickets By Status</tspan>
		</text>
	</g>
</g>
	<g transform="translate(5.5 12.71)">
		<text font-family="'Open Sans'" font-size="11" font-weight="normal" style="stroke: none; stroke-width: 1; stroke-dasharray: none; stroke-linecap: butt; stroke-linejoin: miter; stroke-miterlimit: 10;fill:#888888;fill-opacity:1; fill-rule: nonzero; opacity: 0.7" >
			<tspan x="0" y="2.47" fill="rgb(136, 136, 136)"></tspan>
		</text>
	</g>
<g style="stroke: none; stroke-width: 1; stroke-dasharray: none; stroke-linecap: butt; stroke-linejoin: miter; stroke-miterlimit: 10; fill: none; fill-rule: nonzero; opacity: 1" transform="translate(0 560)" >
	<path d="M 0.5 0.5 L 851.5 0.5 L 851.5 69.5 L 0.5 69.5 Z" style="stroke:#000000;stroke-opacity:1; stroke-opacity: 0; stroke-width: 1; stroke-dasharray: none; stroke-linecap: butt; stroke-linejoin: miter; stroke-miterlimit: 10;fill:#FFFFFF;fill-opacity:1; fill-opacity: 0; fill-rule: nonzero; opacity: 1" transform=" matrix(1 0 0 1 0 0) " stroke-linecap="round" />
	<path d="M -7.5 8.5 L 8.5 8.5 L 8.5 -7.5 L -7.5 -7.5 Z" style="stroke:#67B7DC;stroke-opacity:1; stroke-width: 1; stroke-dasharray: none; stroke-linecap: butt; stroke-linejoin: miter; stroke-miterlimit: 10;fill:#67B7DC;fill-opacity:1; fill-rule: nonzero; opacity: 1" transform=" matrix(1 0 0 1 8 19) " stroke-linecap="round" />
	<path d="M -5.5 -5.5 L 6.5 6.5" style="stroke:#FFFFFF;stroke-opacity:1; stroke-width: 3; stroke-dasharray: none; stroke-linecap: butt; stroke-linejoin: miter; stroke-miterlimit: 10; fill: none; fill-rule: nonzero; opacity: 0" transform=" matrix(1 0 0 1 8 19) " stroke-linecap="round" />
	<path d="M -5.5 6.5 L 6.5 -5.5" style="stroke:#FFFFFF;stroke-opacity:1; stroke-width: 3; stroke-dasharray: none; stroke-linecap: butt; stroke-linejoin: miter; stroke-miterlimit: 10; fill: none; fill-rule: nonzero; opacity: 0" transform=" matrix(1 0 0 1 8 19) " stroke-linecap="round" />
		<g transform=" matrix(1 0 0 1 21 18) ">
		<text font-family="Open Sans" font-size="12.5" font-weight="normal" style="stroke: none; stroke-width: 1; stroke-dasharray: none; stroke-linecap: butt; stroke-linejoin: miter; stroke-miterlimit: 10;fill:#000000;fill-opacity:1; fill-rule: nonzero; opacity: 1" >
			<tspan x="0.5" y="5.49" fill="rgba(0,0,0,1)">00-New Ticket</tspan>
		</text>
	</g>
		<g transform=" matrix(1 0 0 1 101 18) ">
		<text font-family="Open Sans" font-size="12.5" font-weight="normal" style="stroke: none; stroke-width: 1; stroke-dasharray: none; stroke-linecap: butt; stroke-linejoin: miter; stroke-miterlimit: 10;fill:#000000;fill-opacity:1; fill-rule: nonzero; opacity: 1" >
			<tspan x="0.5" y="5.49" fill="rgba(0,0,0,1)">1</tspan>
		</text>
	</g>
	<rect x="16" y="0" rx="0" ry="0" width="184.676513671875" height="19.5" style="stroke: none; stroke-width: 0; stroke-dasharray: none; stroke-linecap: butt; stroke-linejoin: miter; stroke-miterlimit: 10;fill:#FFFFFF;fill-opacity:1; fill-opacity: 0.005; fill-rule: nonzero; opacity: 1" transform=" matrix(1 0 0 1 0 11) "/>
	<path d="M -7.5 8.5 L 8.5 8.5 L 8.5 -7.5 L -7.5 -7.5 Z" style="stroke:#FDD400;stroke-opacity:1; stroke-width: 1; stroke-dasharray: none; stroke-linecap: butt; stroke-linejoin: miter; stroke-miterlimit: 10;fill:#FDD400;fill-opacity:1; fill-rule: nonzero; opacity: 1" transform=" matrix(1 0 0 1 218 19) " stroke-linecap="round" />
	<path d="M -5.5 -5.5 L 6.5 6.5" style="stroke:#FFFFFF;stroke-opacity:1; stroke-width: 3; stroke-dasharray: none; stroke-linecap: butt; stroke-linejoin: miter; stroke-miterlimit: 10; fill: none; fill-rule: nonzero; opacity: 0" transform=" matrix(1 0 0 1 218 19) " stroke-linecap="round" />
	<path d="M -5.5 6.5 L 6.5 -5.5" style="stroke:#FFFFFF;stroke-opacity:1; stroke-width: 3; stroke-dasharray: none; stroke-linecap: butt; stroke-linejoin: miter; stroke-miterlimit: 10; fill: none; fill-rule: nonzero; opacity: 0" transform=" matrix(1 0 0 1 218 19) " stroke-linecap="round" />
		<g transform=" matrix(1 0 0 1 231 18) ">
		<text font-family="Open Sans" font-size="12.5" font-weight="normal" style="stroke: none; stroke-width: 1; stroke-dasharray: none; stroke-linecap: butt; stroke-linejoin: miter; stroke-miterlimit: 10;fill:#000000;fill-opacity:1; fill-rule: nonzero; opacity: 1" >
			<tspan x="0.5" y="5.49" fill="rgba(0,0,0,1)">01-In Progress</tspan>
		</text>
	</g>
		<g transform=" matrix(1 0 0 1 309 18) ">
		<text font-family="Open Sans" font-size="12.5" font-weight="normal" style="stroke: none; stroke-width: 1; stroke-dasharray: none; stroke-linecap: butt; stroke-linejoin: miter; stroke-miterlimit: 10;fill:#000000;fill-opacity:1; fill-rule: nonzero; opacity: 1" >
			<tspan x="0.5" y="5.49" fill="rgba(0,0,0,1)">1</tspan>
		</text>
	</g>
	<rect x="16" y="0" rx="0" ry="0" width="183.2578125" height="19.5" style="stroke: none; stroke-width: 0; stroke-dasharray: none; stroke-linecap: butt; stroke-linejoin: miter; stroke-miterlimit: 10;fill:#FFFFFF;fill-opacity:1; fill-opacity: 0.005; fill-rule: nonzero; opacity: 1" transform=" matrix(1 0 0 1 210 11) "/>
	<path d="M -7.5 8.5 L 8.5 8.5 L 8.5 -7.5 L -7.5 -7.5 Z" style="stroke:#84B761;stroke-opacity:1; stroke-width: 1; stroke-dasharray: none; stroke-linecap: butt; stroke-linejoin: miter; stroke-miterlimit: 10;fill:#84B761;fill-opacity:1; fill-rule: nonzero; opacity: 1" transform=" matrix(1 0 0 1 427 19) " stroke-linecap="round" />
	<path d="M -5.5 -5.5 L 6.5 6.5" style="stroke:#FFFFFF;stroke-opacity:1; stroke-width: 3; stroke-dasharray: none; stroke-linecap: butt; stroke-linejoin: miter; stroke-miterlimit: 10; fill: none; fill-rule: nonzero; opacity: 0" transform=" matrix(1 0 0 1 427 19) " stroke-linecap="round" />
	<path d="M -5.5 6.5 L 6.5 -5.5" style="stroke:#FFFFFF;stroke-opacity:1; stroke-width: 3; stroke-dasharray: none; stroke-linecap: butt; stroke-linejoin: miter; stroke-miterlimit: 10; fill: none; fill-rule: nonzero; opacity: 0" transform=" matrix(1 0 0 1 427 19) " stroke-linecap="round" />
		<g transform=" matrix(1 0 0 1 440 18) ">
		<text font-family="Open Sans" font-size="12.5" font-weight="normal" style="stroke: none; stroke-width: 1; stroke-dasharray: none; stroke-linecap: butt; stroke-linejoin: miter; stroke-miterlimit: 10;fill:#000000;fill-opacity:1; fill-rule: nonzero; opacity: 1" >
			<tspan x="0.5" y="5.49" fill="rgba(0,0,0,1)">02-On Hold</tspan>
		</text>
	</g>
		<g transform=" matrix(1 0 0 1 505 18) ">
		<text font-family="Open Sans" font-size="12.5" font-weight="normal" style="stroke: none; stroke-width: 1; stroke-dasharray: none; stroke-linecap: butt; stroke-linejoin: miter; stroke-miterlimit: 10;fill:#000000;fill-opacity:1; fill-rule: nonzero; opacity: 1" >
			<tspan x="0.5" y="5.49" fill="rgba(0,0,0,1)">1</tspan>
		</text>
	</g>
	<rect x="16" y="0" rx="0" ry="0" width="170.0703125" height="19.5" style="stroke: none; stroke-width: 0; stroke-dasharray: none; stroke-linecap: butt; stroke-linejoin: miter; stroke-miterlimit: 10;fill:#FFFFFF;fill-opacity:1; fill-opacity: 0.005; fill-rule: nonzero; opacity: 1" transform=" matrix(1 0 0 1 419 11) "/>
	<path d="M -7.5 8.5 L 8.5 8.5 L 8.5 -7.5 L -7.5 -7.5 Z" style="stroke:#CC4748;stroke-opacity:1; stroke-width: 1; stroke-dasharray: none; stroke-linecap: butt; stroke-linejoin: miter; stroke-miterlimit: 10;fill:#CC4748;fill-opacity:1; fill-rule: nonzero; opacity: 1" transform=" matrix(1 0 0 1 623 19) " stroke-linecap="round" />
	<path d="M -5.5 -5.5 L 6.5 6.5" style="stroke:#FFFFFF;stroke-opacity:1; stroke-width: 3; stroke-dasharray: none; stroke-linecap: butt; stroke-linejoin: miter; stroke-miterlimit: 10; fill: none; fill-rule: nonzero; opacity: 0" transform=" matrix(1 0 0 1 623 19) " stroke-linecap="round" />
	<path d="M -5.5 6.5 L 6.5 -5.5" style="stroke:#FFFFFF;stroke-opacity:1; stroke-width: 3; stroke-dasharray: none; stroke-linecap: butt; stroke-linejoin: miter; stroke-miterlimit: 10; fill: none; fill-rule: nonzero; opacity: 0" transform=" matrix(1 0 0 1 623 19) " stroke-linecap="round" />
		<g transform=" matrix(1 0 0 1 636 18) ">
		<text font-family="Open Sans" font-size="12.5" font-weight="normal" style="stroke: none; stroke-width: 1; stroke-dasharray: none; stroke-linecap: butt; stroke-linejoin: miter; stroke-miterlimit: 10;fill:#000000;fill-opacity:1; fill-rule: nonzero; opacity: 1" >
			<tspan x="0.5" y="5.49" fill="rgba(0,0,0,1)">03-Ticket Closed</tspan>
		</text>
	</g>
		<g transform=" matrix(1 0 0 1 727 18) ">
		<text font-family="Open Sans" font-size="12.5" font-weight="normal" style="stroke: none; stroke-width: 1; stroke-dasharray: none; stroke-linecap: butt; stroke-linejoin: miter; stroke-miterlimit: 10;fill:#000000;fill-opacity:1; fill-rule: nonzero; opacity: 1" >
			<tspan x="0.5" y="5.49" fill="rgba(0,0,0,1)">0</tspan>
		</text>
	</g>
	<rect x="16" y="0" rx="0" ry="0" width="196.0078125" height="19.5" style="stroke: none; stroke-width: 0; stroke-dasharray: none; stroke-linecap: butt; stroke-linejoin: miter; stroke-miterlimit: 10;fill:#FFFFFF;fill-opacity:1; fill-opacity: 0.005; fill-rule: nonzero; opacity: 1" transform=" matrix(1 0 0 1 615 11) "/>
	<path d="M -7.5 8.5 L 8.5 8.5 L 8.5 -7.5 L -7.5 -7.5 Z" style="stroke:#CD82AD;stroke-opacity:1; stroke-width: 1; stroke-dasharray: none; stroke-linecap: butt; stroke-linejoin: miter; stroke-miterlimit: 10;fill:#CD82AD;fill-opacity:1; fill-rule: nonzero; opacity: 1" transform=" matrix(1 0 0 1 8 49) " stroke-linecap="round" />
	<path d="M -5.5 -5.5 L 6.5 6.5" style="stroke:#FFFFFF;stroke-opacity:1; stroke-width: 3; stroke-dasharray: none; stroke-linecap: butt; stroke-linejoin: miter; stroke-miterlimit: 10; fill: none; fill-rule: nonzero; opacity: 0" transform=" matrix(1 0 0 1 8 49) " stroke-linecap="round" />
	<path d="M -5.5 6.5 L 6.5 -5.5" style="stroke:#FFFFFF;stroke-opacity:1; stroke-width: 3; stroke-dasharray: none; stroke-linecap: butt; stroke-linejoin: miter; stroke-miterlimit: 10; fill: none; fill-rule: nonzero; opacity: 0" transform=" matrix(1 0 0 1 8 49) " stroke-linecap="round" />
		<g transform=" matrix(1 0 0 1 21 48) ">
		<text font-family="Open Sans" font-size="12.5" font-weight="normal" style="stroke: none; stroke-width: 1; stroke-dasharray: none; stroke-linecap: butt; stroke-linejoin: miter; stroke-miterlimit: 10;fill:#000000;fill-opacity:1; fill-rule: nonzero; opacity: 1" >
			<tspan x="0.5" y="5.49" fill="rgba(0,0,0,1)">04-Ticket Invalid</tspan>
		</text>
	</g>
		<g transform=" matrix(1 0 0 1 113 48) ">
		<text font-family="Open Sans" font-size="12.5" font-weight="normal" style="stroke: none; stroke-width: 1; stroke-dasharray: none; stroke-linecap: butt; stroke-linejoin: miter; stroke-miterlimit: 10;fill:#000000;fill-opacity:1; fill-rule: nonzero; opacity: 1" >
			<tspan x="0.5" y="5.49" fill="rgba(0,0,0,1)">0</tspan>
		</text>
	</g>
	<rect x="16" y="0" rx="0" ry="0" width="196.6953125" height="19.5" style="stroke: none; stroke-width: 0; stroke-dasharray: none; stroke-linecap: butt; stroke-linejoin: miter; stroke-miterlimit: 10;fill:#FFFFFF;fill-opacity:1; fill-opacity: 0.005; fill-rule: nonzero; opacity: 1" transform=" matrix(1 0 0 1 0 41) "/>
</g>
</svg>